<?xml version="1.0" encoding="utf-8"?>
<svg xmlns="http://www.w3.org/2000/svg" xmlns:xlink="http://www.w3.org/1999/xlink" width="600" height="400" viewBox="0 0 2400 1600">
<defs>
  <clipPath id="clip550">
    <rect x="0" y="0" width="2400" height="1600"/>
  </clipPath>
</defs>
<path clip-path="url(#clip550)" d="M0 1600 L2400 1600 L2400 8.88178e-14 L0 8.88178e-14  Z" fill="#ffffff" fill-rule="evenodd" fill-opacity="1"/>
<defs>
  <clipPath id="clip551">
    <rect x="480" y="0" width="1681" height="1600"/>
  </clipPath>
</defs>
<path clip-path="url(#clip550)" d="M322.803 1465.3 L1179.52 1465.3 L1179.52 47.2441 L322.803 47.2441  Z" fill="#ffffff" fill-rule="evenodd" fill-opacity="1"/>
<defs>
  <clipPath id="clip552">
    <rect x="322" y="47" width="858" height="1419"/>
  </clipPath>
</defs>
<polyline clip-path="url(#clip552)" style="stroke:#000000; stroke-linecap:round; stroke-linejoin:round; stroke-width:2; stroke-opacity:0.1; fill:none" points="572.679,1465.3 572.679,47.2441 "/>
<polyline clip-path="url(#clip552)" style="stroke:#000000; stroke-linecap:round; stroke-linejoin:round; stroke-width:2; stroke-opacity:0.1; fill:none" points="929.643,1465.3 929.643,47.2441 "/>
<polyline clip-path="url(#clip552)" style="stroke:#000000; stroke-linecap:round; stroke-linejoin:round; stroke-width:2; stroke-opacity:0.1; fill:none" points="322.803,1394.39 1179.52,1394.39 "/>
<polyline clip-path="url(#clip552)" style="stroke:#000000; stroke-linecap:round; stroke-linejoin:round; stroke-width:2; stroke-opacity:0.1; fill:none" points="322.803,1039.88 1179.52,1039.88 "/>
<polyline clip-path="url(#clip552)" style="stroke:#000000; stroke-linecap:round; stroke-linejoin:round; stroke-width:2; stroke-opacity:0.1; fill:none" points="322.803,685.368 1179.52,685.368 "/>
<polyline clip-path="url(#clip552)" style="stroke:#000000; stroke-linecap:round; stroke-linejoin:round; stroke-width:2; stroke-opacity:0.1; fill:none" points="322.803,330.854 1179.52,330.854 "/>
<polyline clip-path="url(#clip550)" style="stroke:#000000; stroke-linecap:round; stroke-linejoin:round; stroke-width:4; stroke-opacity:1; fill:none" points="322.803,1465.3 1179.52,1465.3 "/>
<polyline clip-path="url(#clip550)" style="stroke:#000000; stroke-linecap:round; stroke-linejoin:round; stroke-width:4; stroke-opacity:1; fill:none" points="572.679,1465.3 572.679,1446.4 "/>
<polyline clip-path="url(#clip550)" style="stroke:#000000; stroke-linecap:round; stroke-linejoin:round; stroke-width:4; stroke-opacity:1; fill:none" points="929.643,1465.3 929.643,1446.4 "/>
<g clip-path="url(#clip550)">
<text style="fill:#000000; fill-opacity:1; font-family:Arial,Helvetica Neue,Helvetica,sans-serif; font-size:48px; text-anchor:middle;" transform="rotate(-15, 511.931, 1543.18)" x="511.931" y="1543.18">全惑星+月</text>
</g>
<g clip-path="url(#clip550)">
<text style="fill:#000000; fill-opacity:1; font-family:Arial,Helvetica Neue,Helvetica,sans-serif; font-size:48px; text-anchor:middle;" transform="rotate(-15, 882.472, 1539.55)" x="882.472" y="1539.55">木星除外</text>
</g>
<polyline clip-path="url(#clip550)" style="stroke:#000000; stroke-linecap:round; stroke-linejoin:round; stroke-width:4; stroke-opacity:1; fill:none" points="322.803,1465.3 322.803,47.2441 "/>
<polyline clip-path="url(#clip550)" style="stroke:#000000; stroke-linecap:round; stroke-linejoin:round; stroke-width:4; stroke-opacity:1; fill:none" points="322.803,1394.39 341.701,1394.39 "/>
<polyline clip-path="url(#clip550)" style="stroke:#000000; stroke-linecap:round; stroke-linejoin:round; stroke-width:4; stroke-opacity:1; fill:none" points="322.803,1039.88 341.701,1039.88 "/>
<polyline clip-path="url(#clip550)" style="stroke:#000000; stroke-linecap:round; stroke-linejoin:round; stroke-width:4; stroke-opacity:1; fill:none" points="322.803,685.368 341.701,685.368 "/>
<polyline clip-path="url(#clip550)" style="stroke:#000000; stroke-linecap:round; stroke-linejoin:round; stroke-width:4; stroke-opacity:1; fill:none" points="322.803,330.854 341.701,330.854 "/>
<g clip-path="url(#clip550)">
<text style="fill:#000000; fill-opacity:1; font-family:Arial,Helvetica Neue,Helvetica,sans-serif; font-size:48px; text-anchor:middle;" transform="rotate(0, 199.826, 1411.89)" x="199.826" y="1411.89">0.01625</text>
</g>
<g clip-path="url(#clip550)">
<text style="fill:#000000; fill-opacity:1; font-family:Arial,Helvetica Neue,Helvetica,sans-serif; font-size:48px; text-anchor:middle;" transform="rotate(0, 199.826, 1057.38)" x="199.826" y="1057.38">0.01650</text>
</g>
<g clip-path="url(#clip550)">
<text style="fill:#000000; fill-opacity:1; font-family:Arial,Helvetica Neue,Helvetica,sans-serif; font-size:48px; text-anchor:middle;" transform="rotate(0, 199.826, 702.868)" x="199.826" y="702.868">0.01675</text>
</g>
<g clip-path="url(#clip550)">
<text style="fill:#000000; fill-opacity:1; font-family:Arial,Helvetica Neue,Helvetica,sans-serif; font-size:48px; text-anchor:middle;" transform="rotate(0, 199.826, 348.354)" x="199.826" y="348.354">0.01700</text>
</g>
<g clip-path="url(#clip550)">
<text style="fill:#000000; fill-opacity:1; font-family:Arial,Helvetica Neue,Helvetica,sans-serif; font-size:66px; text-anchor:middle;" transform="rotate(-90, 65.2861, 756.27)" x="65.2861" y="756.27">離心率</text>
</g>
<path clip-path="url(#clip552)" d="M394.196 1465.3 L358.5 1465.3 L429.893 1465.3 L394.196 1465.3 L394.196 1465.3 L394.196 1465.3  Z" fill="#7ccd7c" fill-rule="evenodd" fill-opacity="1"/>
<polyline clip-path="url(#clip552)" style="stroke:#000000; stroke-linecap:round; stroke-linejoin:round; stroke-width:4; stroke-opacity:1; fill:none" points="394.196,1465.3 358.5,1465.3 429.893,1465.3 394.196,1465.3 "/>
<path clip-path="url(#clip552)" d="M465.589 1465.3 L465.589 1465.3 L322.803 1465.3 L322.803 1465.3 L465.589 1465.3 L465.589 1465.3 L465.589 1465.3  Z" fill="#7ccd7c" fill-rule="evenodd" fill-opacity="1"/>
<polyline clip-path="url(#clip552)" style="stroke:#000000; stroke-linecap:round; stroke-linejoin:round; stroke-width:4; stroke-opacity:1; fill:none" points="465.589,1465.3 465.589,1465.3 322.803,1465.3 465.589,1465.3 "/>
<path clip-path="url(#clip552)" d="M465.589 1465.3 L322.803 1465.3 L322.803 1465.3 L465.589 1465.3 L465.589 1465.3 L394.196 1465.3 L465.589 1465.3  Z" fill="#7ccd7c" fill-rule="evenodd" fill-opacity="1"/>
<polyline clip-path="url(#clip552)" style="stroke:#000000; stroke-linecap:round; stroke-linejoin:round; stroke-width:4; stroke-opacity:1; fill:none" points="465.589,1465.3 322.803,1465.3 465.589,1465.3 394.196,1465.3 465.589,1465.3 "/>
<path clip-path="url(#clip552)" d="M394.196 1465.3 L358.5 1465.3 L429.893 1465.3 L394.196 1465.3 L394.196 1465.3 L394.196 1465.3  Z" fill="#7ccd7c" fill-rule="evenodd" fill-opacity="1"/>
<polyline clip-path="url(#clip552)" style="stroke:#000000; stroke-linecap:round; stroke-linejoin:round; stroke-width:4; stroke-opacity:1; fill:none" points="394.196,1465.3 358.5,1465.3 429.893,1465.3 394.196,1465.3 "/>
<polyline clip-path="url(#clip552)" style="stroke:#7ccd7c; stroke-linecap:round; stroke-linejoin:round; stroke-width:0; stroke-opacity:1; fill:none" points="394.196,1465.3 358.5,1465.3 429.893,1465.3 394.196,1465.3 "/>
<polyline clip-path="url(#clip552)" style="stroke:#7ccd7c; stroke-linecap:round; stroke-linejoin:round; stroke-width:0; stroke-opacity:1; fill:none" points="465.589,1465.3 465.589,1465.3 322.803,1465.3 465.589,1465.3 "/>
<polyline clip-path="url(#clip552)" style="stroke:#7ccd7c; stroke-linecap:round; stroke-linejoin:round; stroke-width:0; stroke-opacity:1; fill:none" points="465.589,1465.3 322.803,1465.3 465.589,1465.3 394.196,1465.3 "/>
<polyline clip-path="url(#clip552)" style="stroke:#7ccd7c; stroke-linecap:round; stroke-linejoin:round; stroke-width:0; stroke-opacity:1; fill:none" points="394.196,1465.3 358.5,1465.3 429.893,1465.3 394.196,1465.3 "/>
<path clip-path="url(#clip552)" d="M572.679 1395.33 L536.982 1395.33 L608.375 1395.33 L572.679 1395.33 L572.679 1208.92 L572.679 1395.33  Z" fill="#7ccd7c" fill-rule="evenodd" fill-opacity="1"/>
<polyline clip-path="url(#clip552)" style="stroke:#000000; stroke-linecap:round; stroke-linejoin:round; stroke-width:4; stroke-opacity:1; fill:none" points="572.679,1395.33 536.982,1395.33 608.375,1395.33 572.679,1395.33 572.679,1208.92 572.679,1395.33 "/>
<path clip-path="url(#clip552)" d="M644.071 1208.92 L644.071 1057.14 L501.286 1057.14 L501.286 1208.92 L644.071 1208.92 L644.071 1057.14 L644.071 1208.92  Z" fill="#7ccd7c" fill-rule="evenodd" fill-opacity="1"/>
<polyline clip-path="url(#clip552)" style="stroke:#000000; stroke-linecap:round; stroke-linejoin:round; stroke-width:4; stroke-opacity:1; fill:none" points="644.071,1208.92 644.071,1057.14 501.286,1057.14 501.286,1208.92 644.071,1208.92 644.071,1057.14 644.071,1208.92 "/>
<path clip-path="url(#clip552)" d="M644.071 906.003 L501.286 906.003 L501.286 1057.14 L644.071 1057.14 L644.071 906.003 L572.679 906.003 L644.071 906.003  Z" fill="#7ccd7c" fill-rule="evenodd" fill-opacity="1"/>
<polyline clip-path="url(#clip552)" style="stroke:#000000; stroke-linecap:round; stroke-linejoin:round; stroke-width:4; stroke-opacity:1; fill:none" points="644.071,906.003 501.286,906.003 501.286,1057.14 644.071,1057.14 644.071,906.003 572.679,906.003 644.071,906.003 "/>
<path clip-path="url(#clip552)" d="M572.679 716.614 L536.982 716.614 L608.375 716.614 L572.679 716.614 L572.679 906.003 L572.679 716.614  Z" fill="#7ccd7c" fill-rule="evenodd" fill-opacity="1"/>
<polyline clip-path="url(#clip552)" style="stroke:#000000; stroke-linecap:round; stroke-linejoin:round; stroke-width:4; stroke-opacity:1; fill:none" points="572.679,716.614 536.982,716.614 608.375,716.614 572.679,716.614 572.679,906.003 572.679,716.614 "/>
<polyline clip-path="url(#clip552)" style="stroke:#7ccd7c; stroke-linecap:round; stroke-linejoin:round; stroke-width:0; stroke-opacity:1; fill:none" points="572.679,1395.33 536.982,1395.33 608.375,1395.33 572.679,1395.33 572.679,1208.92 "/>
<polyline clip-path="url(#clip552)" style="stroke:#7ccd7c; stroke-linecap:round; stroke-linejoin:round; stroke-width:0; stroke-opacity:1; fill:none" points="644.071,1208.92 644.071,1057.14 501.286,1057.14 501.286,1208.92 644.071,1208.92 644.071,1057.14 "/>
<polyline clip-path="url(#clip552)" style="stroke:#7ccd7c; stroke-linecap:round; stroke-linejoin:round; stroke-width:0; stroke-opacity:1; fill:none" points="644.071,906.003 501.286,906.003 501.286,1057.14 644.071,1057.14 644.071,906.003 572.679,906.003 "/>
<polyline clip-path="url(#clip552)" style="stroke:#7ccd7c; stroke-linecap:round; stroke-linejoin:round; stroke-width:0; stroke-opacity:1; fill:none" points="572.679,716.614 536.982,716.614 608.375,716.614 572.679,716.614 572.679,906.003 "/>
<path clip-path="url(#clip552)" d="M751.161 1465.3 L715.464 1465.3 L786.857 1465.3 L751.161 1465.3 L751.161 1465.3 L751.161 1465.3  Z" fill="#7ccd7c" fill-rule="evenodd" fill-opacity="1"/>
<polyline clip-path="url(#clip552)" style="stroke:#000000; stroke-linecap:round; stroke-linejoin:round; stroke-width:4; stroke-opacity:1; fill:none" points="751.161,1465.3 715.464,1465.3 786.857,1465.3 751.161,1465.3 "/>
<path clip-path="url(#clip552)" d="M822.554 1465.3 L822.554 1465.3 L679.768 1465.3 L679.768 1465.3 L822.554 1465.3 L822.554 1465.3 L822.554 1465.3  Z" fill="#7ccd7c" fill-rule="evenodd" fill-opacity="1"/>
<polyline clip-path="url(#clip552)" style="stroke:#000000; stroke-linecap:round; stroke-linejoin:round; stroke-width:4; stroke-opacity:1; fill:none" points="822.554,1465.3 822.554,1465.3 679.768,1465.3 822.554,1465.3 "/>
<path clip-path="url(#clip552)" d="M822.554 1465.3 L679.768 1465.3 L679.768 1465.3 L822.554 1465.3 L822.554 1465.3 L751.161 1465.3 L822.554 1465.3  Z" fill="#7ccd7c" fill-rule="evenodd" fill-opacity="1"/>
<polyline clip-path="url(#clip552)" style="stroke:#000000; stroke-linecap:round; stroke-linejoin:round; stroke-width:4; stroke-opacity:1; fill:none" points="822.554,1465.3 679.768,1465.3 822.554,1465.3 751.161,1465.3 822.554,1465.3 "/>
<path clip-path="url(#clip552)" d="M751.161 1465.3 L715.464 1465.3 L786.857 1465.3 L751.161 1465.3 L751.161 1465.3 L751.161 1465.3  Z" fill="#7ccd7c" fill-rule="evenodd" fill-opacity="1"/>
<polyline clip-path="url(#clip552)" style="stroke:#000000; stroke-linecap:round; stroke-linejoin:round; stroke-width:4; stroke-opacity:1; fill:none" points="751.161,1465.3 715.464,1465.3 786.857,1465.3 751.161,1465.3 "/>
<polyline clip-path="url(#clip552)" style="stroke:#7ccd7c; stroke-linecap:round; stroke-linejoin:round; stroke-width:0; stroke-opacity:1; fill:none" points="751.161,1465.3 715.464,1465.3 786.857,1465.3 751.161,1465.3 "/>
<polyline clip-path="url(#clip552)" style="stroke:#7ccd7c; stroke-linecap:round; stroke-linejoin:round; stroke-width:0; stroke-opacity:1; fill:none" points="822.554,1465.3 822.554,1465.3 679.768,1465.3 822.554,1465.3 "/>
<polyline clip-path="url(#clip552)" style="stroke:#7ccd7c; stroke-linecap:round; stroke-linejoin:round; stroke-width:0; stroke-opacity:1; fill:none" points="822.554,1465.3 679.768,1465.3 822.554,1465.3 751.161,1465.3 "/>
<polyline clip-path="url(#clip552)" style="stroke:#7ccd7c; stroke-linecap:round; stroke-linejoin:round; stroke-width:0; stroke-opacity:1; fill:none" points="751.161,1465.3 715.464,1465.3 786.857,1465.3 751.161,1465.3 "/>
<path clip-path="url(#clip552)" d="M929.643 868.173 L893.947 868.173 L965.34 868.173 L929.643 868.173 L929.643 830.71 L929.643 868.173  Z" fill="#7ccd7c" fill-rule="evenodd" fill-opacity="1"/>
<polyline clip-path="url(#clip552)" style="stroke:#000000; stroke-linecap:round; stroke-linejoin:round; stroke-width:4; stroke-opacity:1; fill:none" points="929.643,868.173 893.947,868.173 965.34,868.173 929.643,868.173 929.643,830.71 929.643,868.173 "/>
<path clip-path="url(#clip552)" d="M1001.04 830.71 L1001.04 816.08 L858.25 816.08 L858.25 830.71 L1001.04 830.71 L1001.04 816.08 L1001.04 830.71  Z" fill="#7ccd7c" fill-rule="evenodd" fill-opacity="1"/>
<polyline clip-path="url(#clip552)" style="stroke:#000000; stroke-linecap:round; stroke-linejoin:round; stroke-width:4; stroke-opacity:1; fill:none" points="1001.04,830.71 1001.04,816.08 858.25,816.08 858.25,830.71 1001.04,830.71 1001.04,816.08 1001.04,830.71 "/>
<path clip-path="url(#clip552)" d="M1001.04 802.606 L858.25 802.606 L858.25 816.08 L1001.04 816.08 L1001.04 802.606 L929.643 802.606 L1001.04 802.606  Z" fill="#7ccd7c" fill-rule="evenodd" fill-opacity="1"/>
<polyline clip-path="url(#clip552)" style="stroke:#000000; stroke-linecap:round; stroke-linejoin:round; stroke-width:4; stroke-opacity:1; fill:none" points="1001.04,802.606 858.25,802.606 858.25,816.08 1001.04,816.08 1001.04,802.606 929.643,802.606 1001.04,802.606 "/>
<path clip-path="url(#clip552)" d="M929.643 774.19 L893.947 774.19 L965.34 774.19 L929.643 774.19 L929.643 802.606 L929.643 774.19  Z" fill="#7ccd7c" fill-rule="evenodd" fill-opacity="1"/>
<polyline clip-path="url(#clip552)" style="stroke:#000000; stroke-linecap:round; stroke-linejoin:round; stroke-width:4; stroke-opacity:1; fill:none" points="929.643,774.19 893.947,774.19 965.34,774.19 929.643,774.19 929.643,802.606 929.643,774.19 "/>
<polyline clip-path="url(#clip552)" style="stroke:#7ccd7c; stroke-linecap:round; stroke-linejoin:round; stroke-width:0; stroke-opacity:1; fill:none" points="929.643,868.173 893.947,868.173 965.34,868.173 929.643,868.173 929.643,830.71 "/>
<polyline clip-path="url(#clip552)" style="stroke:#7ccd7c; stroke-linecap:round; stroke-linejoin:round; stroke-width:0; stroke-opacity:1; fill:none" points="1001.04,830.71 1001.04,816.08 858.25,816.08 858.25,830.71 1001.04,830.71 1001.04,816.08 "/>
<polyline clip-path="url(#clip552)" style="stroke:#7ccd7c; stroke-linecap:round; stroke-linejoin:round; stroke-width:0; stroke-opacity:1; fill:none" points="1001.04,802.606 858.25,802.606 858.25,816.08 1001.04,816.08 1001.04,802.606 929.643,802.606 "/>
<polyline clip-path="url(#clip552)" style="stroke:#7ccd7c; stroke-linecap:round; stroke-linejoin:round; stroke-width:0; stroke-opacity:1; fill:none" points="929.643,774.19 893.947,774.19 965.34,774.19 929.643,774.19 929.643,802.606 "/>
<path clip-path="url(#clip552)" d="M1108.13 1465.3 L1072.43 1465.3 L1143.82 1465.3 L1108.13 1465.3 L1108.13 1465.3 L1108.13 1465.3  Z" fill="#7ccd7c" fill-rule="evenodd" fill-opacity="1"/>
<polyline clip-path="url(#clip552)" style="stroke:#000000; stroke-linecap:round; stroke-linejoin:round; stroke-width:4; stroke-opacity:1; fill:none" points="1108.13,1465.3 1072.43,1465.3 1143.82,1465.3 1108.13,1465.3 "/>
<path clip-path="url(#clip552)" d="M1179.52 1465.3 L1179.52 1465.3 L1036.73 1465.3 L1036.73 1465.3 L1179.52 1465.3 L1179.52 1465.3 L1179.52 1465.3  Z" fill="#7ccd7c" fill-rule="evenodd" fill-opacity="1"/>
<polyline clip-path="url(#clip552)" style="stroke:#000000; stroke-linecap:round; stroke-linejoin:round; stroke-width:4; stroke-opacity:1; fill:none" points="1179.52,1465.3 1179.52,1465.3 1036.73,1465.3 1179.52,1465.3 "/>
<path clip-path="url(#clip552)" d="M1179.52 1465.3 L1036.73 1465.3 L1036.73 1465.3 L1179.52 1465.3 L1179.52 1465.3 L1108.13 1465.3 L1179.52 1465.3  Z" fill="#7ccd7c" fill-rule="evenodd" fill-opacity="1"/>
<polyline clip-path="url(#clip552)" style="stroke:#000000; stroke-linecap:round; stroke-linejoin:round; stroke-width:4; stroke-opacity:1; fill:none" points="1179.52,1465.3 1036.73,1465.3 1179.52,1465.3 1108.13,1465.3 1179.52,1465.3 "/>
<path clip-path="url(#clip552)" d="M1108.13 1465.3 L1072.43 1465.3 L1143.82 1465.3 L1108.13 1465.3 L1108.13 1465.3 L1108.13 1465.3  Z" fill="#7ccd7c" fill-rule="evenodd" fill-opacity="1"/>
<polyline clip-path="url(#clip552)" style="stroke:#000000; stroke-linecap:round; stroke-linejoin:round; stroke-width:4; stroke-opacity:1; fill:none" points="1108.13,1465.3 1072.43,1465.3 1143.82,1465.3 1108.13,1465.3 "/>
<polyline clip-path="url(#clip552)" style="stroke:#7ccd7c; stroke-linecap:round; stroke-linejoin:round; stroke-width:0; stroke-opacity:1; fill:none" points="1108.13,1465.3 1072.43,1465.3 1143.82,1465.3 1108.13,1465.3 "/>
<polyline clip-path="url(#clip552)" style="stroke:#7ccd7c; stroke-linecap:round; stroke-linejoin:round; stroke-width:0; stroke-opacity:1; fill:none" points="1179.52,1465.3 1179.52,1465.3 1036.73,1465.3 1179.52,1465.3 "/>
<polyline clip-path="url(#clip552)" style="stroke:#7ccd7c; stroke-linecap:round; stroke-linejoin:round; stroke-width:0; stroke-opacity:1; fill:none" points="1179.52,1465.3 1036.73,1465.3 1179.52,1465.3 1108.13,1465.3 "/>
<polyline clip-path="url(#clip552)" style="stroke:#7ccd7c; stroke-linecap:round; stroke-linejoin:round; stroke-width:0; stroke-opacity:1; fill:none" points="1108.13,1465.3 1072.43,1465.3 1143.82,1465.3 1108.13,1465.3 "/>
<path clip-path="url(#clip550)" d="M1496.04 1465.3 L2352.76 1465.3 L2352.76 47.2441 L1496.04 47.2441  Z" fill="#ffffff" fill-rule="evenodd" fill-opacity="1"/>
<defs>
  <clipPath id="clip553">
    <rect x="1496" y="47" width="858" height="1419"/>
  </clipPath>
</defs>
<polyline clip-path="url(#clip553)" style="stroke:#000000; stroke-linecap:round; stroke-linejoin:round; stroke-width:2; stroke-opacity:0.1; fill:none" points="1745.92,1465.3 1745.92,47.2441 "/>
<polyline clip-path="url(#clip553)" style="stroke:#000000; stroke-linecap:round; stroke-linejoin:round; stroke-width:2; stroke-opacity:0.1; fill:none" points="2102.88,1465.3 2102.88,47.2441 "/>
<polyline clip-path="url(#clip553)" style="stroke:#000000; stroke-linecap:round; stroke-linejoin:round; stroke-width:2; stroke-opacity:0.1; fill:none" points="1496.04,1262.72 2352.76,1262.72 "/>
<polyline clip-path="url(#clip553)" style="stroke:#000000; stroke-linecap:round; stroke-linejoin:round; stroke-width:2; stroke-opacity:0.1; fill:none" points="1496.04,857.56 2352.76,857.56 "/>
<polyline clip-path="url(#clip553)" style="stroke:#000000; stroke-linecap:round; stroke-linejoin:round; stroke-width:2; stroke-opacity:0.1; fill:none" points="1496.04,452.402 2352.76,452.402 "/>
<polyline clip-path="url(#clip553)" style="stroke:#000000; stroke-linecap:round; stroke-linejoin:round; stroke-width:2; stroke-opacity:0.1; fill:none" points="1496.04,47.2441 2352.76,47.2441 "/>
<polyline clip-path="url(#clip550)" style="stroke:#000000; stroke-linecap:round; stroke-linejoin:round; stroke-width:4; stroke-opacity:1; fill:none" points="1496.04,1465.3 2352.76,1465.3 "/>
<polyline clip-path="url(#clip550)" style="stroke:#000000; stroke-linecap:round; stroke-linejoin:round; stroke-width:4; stroke-opacity:1; fill:none" points="1745.92,1465.3 1745.92,1446.4 "/>
<polyline clip-path="url(#clip550)" style="stroke:#000000; stroke-linecap:round; stroke-linejoin:round; stroke-width:4; stroke-opacity:1; fill:none" points="2102.88,1465.3 2102.88,1446.4 "/>
<g clip-path="url(#clip550)">
<text style="fill:#000000; fill-opacity:1; font-family:Arial,Helvetica Neue,Helvetica,sans-serif; font-size:48px; text-anchor:middle;" transform="rotate(-15, 1685.17, 1543.18)" x="1685.17" y="1543.18">全惑星+月</text>
</g>
<g clip-path="url(#clip550)">
<text style="fill:#000000; fill-opacity:1; font-family:Arial,Helvetica Neue,Helvetica,sans-serif; font-size:48px; text-anchor:middle;" transform="rotate(-15, 2055.71, 1539.55)" x="2055.71" y="1539.55">木星除外</text>
</g>
<polyline clip-path="url(#clip550)" style="stroke:#000000; stroke-linecap:round; stroke-linejoin:round; stroke-width:4; stroke-opacity:1; fill:none" points="1496.04,1465.3 1496.04,47.2441 "/>
<polyline clip-path="url(#clip550)" style="stroke:#000000; stroke-linecap:round; stroke-linejoin:round; stroke-width:4; stroke-opacity:1; fill:none" points="1496.04,1262.72 1514.94,1262.72 "/>
<polyline clip-path="url(#clip550)" style="stroke:#000000; stroke-linecap:round; stroke-linejoin:round; stroke-width:4; stroke-opacity:1; fill:none" points="1496.04,857.56 1514.94,857.56 "/>
<polyline clip-path="url(#clip550)" style="stroke:#000000; stroke-linecap:round; stroke-linejoin:round; stroke-width:4; stroke-opacity:1; fill:none" points="1496.04,452.402 1514.94,452.402 "/>
<polyline clip-path="url(#clip550)" style="stroke:#000000; stroke-linecap:round; stroke-linejoin:round; stroke-width:4; stroke-opacity:1; fill:none" points="1496.04,47.2441 1514.94,47.2441 "/>
<g clip-path="url(#clip550)">
<text style="fill:#000000; fill-opacity:1; font-family:Arial,Helvetica Neue,Helvetica,sans-serif; font-size:48px; text-anchor:middle;" transform="rotate(0, 1399.83, 1280.22)" x="1399.83" y="1280.22">365.0</text>
</g>
<g clip-path="url(#clip550)">
<text style="fill:#000000; fill-opacity:1; font-family:Arial,Helvetica Neue,Helvetica,sans-serif; font-size:48px; text-anchor:middle;" transform="rotate(0, 1399.83, 875.06)" x="1399.83" y="875.06">365.2</text>
</g>
<g clip-path="url(#clip550)">
<text style="fill:#000000; fill-opacity:1; font-family:Arial,Helvetica Neue,Helvetica,sans-serif; font-size:48px; text-anchor:middle;" transform="rotate(0, 1399.83, 469.902)" x="1399.83" y="469.902">365.4</text>
</g>
<g clip-path="url(#clip550)">
<text style="fill:#000000; fill-opacity:1; font-family:Arial,Helvetica Neue,Helvetica,sans-serif; font-size:48px; text-anchor:middle;" transform="rotate(0, 1399.83, 64.7441)" x="1399.83" y="64.7441">365.6</text>
</g>
<g clip-path="url(#clip550)">
<text style="fill:#000000; fill-opacity:1; font-family:Arial,Helvetica Neue,Helvetica,sans-serif; font-size:66px; text-anchor:middle;" transform="rotate(-90, 1292.05, 756.27)" x="1292.05" y="756.27">公転周期（日）</text>
</g>
<path clip-path="url(#clip553)" d="M1567.43 1465.3 L1531.74 1465.3 L1603.13 1465.3 L1567.43 1465.3 L1567.43 1465.3 L1567.43 1465.3  Z" fill="#7ac5cd" fill-rule="evenodd" fill-opacity="1"/>
<polyline clip-path="url(#clip553)" style="stroke:#000000; stroke-linecap:round; stroke-linejoin:round; stroke-width:4; stroke-opacity:1; fill:none" points="1567.43,1465.3 1531.74,1465.3 1603.13,1465.3 1567.43,1465.3 "/>
<path clip-path="url(#clip553)" d="M1638.83 1465.3 L1638.83 1465.3 L1496.04 1465.3 L1496.04 1465.3 L1638.83 1465.3 L1638.83 1465.3 L1638.83 1465.3  Z" fill="#7ac5cd" fill-rule="evenodd" fill-opacity="1"/>
<polyline clip-path="url(#clip553)" style="stroke:#000000; stroke-linecap:round; stroke-linejoin:round; stroke-width:4; stroke-opacity:1; fill:none" points="1638.83,1465.3 1638.83,1465.3 1496.04,1465.3 1638.83,1465.3 "/>
<path clip-path="url(#clip553)" d="M1638.83 1465.3 L1496.04 1465.3 L1496.04 1465.3 L1638.83 1465.3 L1638.83 1465.3 L1567.43 1465.3 L1638.83 1465.3  Z" fill="#7ac5cd" fill-rule="evenodd" fill-opacity="1"/>
<polyline clip-path="url(#clip553)" style="stroke:#000000; stroke-linecap:round; stroke-linejoin:round; stroke-width:4; stroke-opacity:1; fill:none" points="1638.83,1465.3 1496.04,1465.3 1638.83,1465.3 1567.43,1465.3 1638.83,1465.3 "/>
<path clip-path="url(#clip553)" d="M1567.43 1465.3 L1531.74 1465.3 L1603.13 1465.3 L1567.43 1465.3 L1567.43 1465.3 L1567.43 1465.3  Z" fill="#7ac5cd" fill-rule="evenodd" fill-opacity="1"/>
<polyline clip-path="url(#clip553)" style="stroke:#000000; stroke-linecap:round; stroke-linejoin:round; stroke-width:4; stroke-opacity:1; fill:none" points="1567.43,1465.3 1531.74,1465.3 1603.13,1465.3 1567.43,1465.3 "/>
<polyline clip-path="url(#clip553)" style="stroke:#7ac5cd; stroke-linecap:round; stroke-linejoin:round; stroke-width:0; stroke-opacity:1; fill:none" points="1567.43,1465.3 1531.74,1465.3 1603.13,1465.3 1567.43,1465.3 "/>
<polyline clip-path="url(#clip553)" style="stroke:#7ac5cd; stroke-linecap:round; stroke-linejoin:round; stroke-width:0; stroke-opacity:1; fill:none" points="1638.83,1465.3 1638.83,1465.3 1496.04,1465.3 1638.83,1465.3 "/>
<polyline clip-path="url(#clip553)" style="stroke:#7ac5cd; stroke-linecap:round; stroke-linejoin:round; stroke-width:0; stroke-opacity:1; fill:none" points="1638.83,1465.3 1496.04,1465.3 1638.83,1465.3 1567.43,1465.3 "/>
<polyline clip-path="url(#clip553)" style="stroke:#7ac5cd; stroke-linecap:round; stroke-linejoin:round; stroke-width:0; stroke-opacity:1; fill:none" points="1567.43,1465.3 1531.74,1465.3 1603.13,1465.3 1567.43,1465.3 "/>
<path clip-path="url(#clip553)" d="M1745.92 1093.9 L1710.22 1093.9 L1781.61 1093.9 L1745.92 1093.9 L1745.92 840.678 L1745.92 1093.9  Z" fill="#7ac5cd" fill-rule="evenodd" fill-opacity="1"/>
<polyline clip-path="url(#clip553)" style="stroke:#000000; stroke-linecap:round; stroke-linejoin:round; stroke-width:4; stroke-opacity:1; fill:none" points="1745.92,1093.9 1710.22,1093.9 1781.61,1093.9 1745.92,1093.9 1745.92,840.678 1745.92,1093.9 "/>
<path clip-path="url(#clip553)" d="M1817.31 840.678 L1817.31 756.27 L1674.52 756.27 L1674.52 840.678 L1817.31 840.678 L1817.31 756.27 L1817.31 840.678  Z" fill="#7ac5cd" fill-rule="evenodd" fill-opacity="1"/>
<polyline clip-path="url(#clip553)" style="stroke:#000000; stroke-linecap:round; stroke-linejoin:round; stroke-width:4; stroke-opacity:1; fill:none" points="1817.31,840.678 1817.31,756.27 1674.52,756.27 1674.52,840.678 1817.31,840.678 1817.31,756.27 1817.31,840.678 "/>
<path clip-path="url(#clip553)" d="M1817.31 587.454 L1674.52 587.454 L1674.52 756.27 L1817.31 756.27 L1817.31 587.454 L1745.92 587.454 L1817.31 587.454  Z" fill="#7ac5cd" fill-rule="evenodd" fill-opacity="1"/>
<polyline clip-path="url(#clip553)" style="stroke:#000000; stroke-linecap:round; stroke-linejoin:round; stroke-width:4; stroke-opacity:1; fill:none" points="1817.31,587.454 1674.52,587.454 1674.52,756.27 1817.31,756.27 1817.31,587.454 1745.92,587.454 1817.31,587.454 "/>
<path clip-path="url(#clip553)" d="M1745.92 334.231 L1710.22 334.231 L1781.61 334.231 L1745.92 334.231 L1745.92 587.454 L1745.92 334.231  Z" fill="#7ac5cd" fill-rule="evenodd" fill-opacity="1"/>
<polyline clip-path="url(#clip553)" style="stroke:#000000; stroke-linecap:round; stroke-linejoin:round; stroke-width:4; stroke-opacity:1; fill:none" points="1745.92,334.231 1710.22,334.231 1781.61,334.231 1745.92,334.231 1745.92,587.454 1745.92,334.231 "/>
<polyline clip-path="url(#clip553)" style="stroke:#7ac5cd; stroke-linecap:round; stroke-linejoin:round; stroke-width:0; stroke-opacity:1; fill:none" points="1745.92,1093.9 1710.22,1093.9 1781.61,1093.9 1745.92,1093.9 1745.92,840.678 "/>
<polyline clip-path="url(#clip553)" style="stroke:#7ac5cd; stroke-linecap:round; stroke-linejoin:round; stroke-width:0; stroke-opacity:1; fill:none" points="1817.31,840.678 1817.31,756.27 1674.52,756.27 1674.52,840.678 1817.31,840.678 1817.31,756.27 "/>
<polyline clip-path="url(#clip553)" style="stroke:#7ac5cd; stroke-linecap:round; stroke-linejoin:round; stroke-width:0; stroke-opacity:1; fill:none" points="1817.31,587.454 1674.52,587.454 1674.52,756.27 1817.31,756.27 1817.31,587.454 1745.92,587.454 "/>
<polyline clip-path="url(#clip553)" style="stroke:#7ac5cd; stroke-linecap:round; stroke-linejoin:round; stroke-width:0; stroke-opacity:1; fill:none" points="1745.92,334.231 1710.22,334.231 1781.61,334.231 1745.92,334.231 1745.92,587.454 "/>
<path clip-path="url(#clip553)" d="M1924.4 1465.3 L1888.7 1465.3 L1960.09 1465.3 L1924.4 1465.3 L1924.4 1465.3 L1924.4 1465.3  Z" fill="#7ac5cd" fill-rule="evenodd" fill-opacity="1"/>
<polyline clip-path="url(#clip553)" style="stroke:#000000; stroke-linecap:round; stroke-linejoin:round; stroke-width:4; stroke-opacity:1; fill:none" points="1924.4,1465.3 1888.7,1465.3 1960.09,1465.3 1924.4,1465.3 "/>
<path clip-path="url(#clip553)" d="M1995.79 1465.3 L1995.79 1465.3 L1853.01 1465.3 L1853.01 1465.3 L1995.79 1465.3 L1995.79 1465.3 L1995.79 1465.3  Z" fill="#7ac5cd" fill-rule="evenodd" fill-opacity="1"/>
<polyline clip-path="url(#clip553)" style="stroke:#000000; stroke-linecap:round; stroke-linejoin:round; stroke-width:4; stroke-opacity:1; fill:none" points="1995.79,1465.3 1995.79,1465.3 1853.01,1465.3 1995.79,1465.3 "/>
<path clip-path="url(#clip553)" d="M1995.79 1465.3 L1853.01 1465.3 L1853.01 1465.3 L1995.79 1465.3 L1995.79 1465.3 L1924.4 1465.3 L1995.79 1465.3  Z" fill="#7ac5cd" fill-rule="evenodd" fill-opacity="1"/>
<polyline clip-path="url(#clip553)" style="stroke:#000000; stroke-linecap:round; stroke-linejoin:round; stroke-width:4; stroke-opacity:1; fill:none" points="1995.79,1465.3 1853.01,1465.3 1995.79,1465.3 1924.4,1465.3 1995.79,1465.3 "/>
<path clip-path="url(#clip553)" d="M1924.4 1465.3 L1888.7 1465.3 L1960.09 1465.3 L1924.4 1465.3 L1924.4 1465.3 L1924.4 1465.3  Z" fill="#7ac5cd" fill-rule="evenodd" fill-opacity="1"/>
<polyline clip-path="url(#clip553)" style="stroke:#000000; stroke-linecap:round; stroke-linejoin:round; stroke-width:4; stroke-opacity:1; fill:none" points="1924.4,1465.3 1888.7,1465.3 1960.09,1465.3 1924.4,1465.3 "/>
<polyline clip-path="url(#clip553)" style="stroke:#7ac5cd; stroke-linecap:round; stroke-linejoin:round; stroke-width:0; stroke-opacity:1; fill:none" points="1924.4,1465.3 1888.7,1465.3 1960.09,1465.3 1924.4,1465.3 "/>
<polyline clip-path="url(#clip553)" style="stroke:#7ac5cd; stroke-linecap:round; stroke-linejoin:round; stroke-width:0; stroke-opacity:1; fill:none" points="1995.79,1465.3 1995.79,1465.3 1853.01,1465.3 1995.79,1465.3 "/>
<polyline clip-path="url(#clip553)" style="stroke:#7ac5cd; stroke-linecap:round; stroke-linejoin:round; stroke-width:0; stroke-opacity:1; fill:none" points="1995.79,1465.3 1853.01,1465.3 1995.79,1465.3 1924.4,1465.3 "/>
<polyline clip-path="url(#clip553)" style="stroke:#7ac5cd; stroke-linecap:round; stroke-linejoin:round; stroke-width:0; stroke-opacity:1; fill:none" points="1924.4,1465.3 1888.7,1465.3 1960.09,1465.3 1924.4,1465.3 "/>
<path clip-path="url(#clip553)" d="M2102.88 1009.49 L2067.18 1009.49 L2138.58 1009.49 L2102.88 1009.49 L2102.88 840.678 L2102.88 1009.49  Z" fill="#7ac5cd" fill-rule="evenodd" fill-opacity="1"/>
<polyline clip-path="url(#clip553)" style="stroke:#000000; stroke-linecap:round; stroke-linejoin:round; stroke-width:4; stroke-opacity:1; fill:none" points="2102.88,1009.49 2067.18,1009.49 2138.58,1009.49 2102.88,1009.49 2102.88,840.678 2102.88,1009.49 "/>
<path clip-path="url(#clip553)" d="M2174.27 840.678 L2174.27 756.27 L2031.49 756.27 L2031.49 840.678 L2174.27 840.678 L2174.27 756.27 L2174.27 840.678  Z" fill="#7ac5cd" fill-rule="evenodd" fill-opacity="1"/>
<polyline clip-path="url(#clip553)" style="stroke:#000000; stroke-linecap:round; stroke-linejoin:round; stroke-width:4; stroke-opacity:1; fill:none" points="2174.27,840.678 2174.27,756.27 2031.49,756.27 2031.49,840.678 2174.27,840.678 2174.27,756.27 2174.27,840.678 "/>
<path clip-path="url(#clip553)" d="M2174.27 671.862 L2031.49 671.862 L2031.49 756.27 L2174.27 756.27 L2174.27 671.862 L2102.88 671.862 L2174.27 671.862  Z" fill="#7ac5cd" fill-rule="evenodd" fill-opacity="1"/>
<polyline clip-path="url(#clip553)" style="stroke:#000000; stroke-linecap:round; stroke-linejoin:round; stroke-width:4; stroke-opacity:1; fill:none" points="2174.27,671.862 2031.49,671.862 2031.49,756.27 2174.27,756.27 2174.27,671.862 2102.88,671.862 2174.27,671.862 "/>
<path clip-path="url(#clip553)" d="M2102.88 418.639 L2067.18 418.639 L2138.58 418.639 L2102.88 418.639 L2102.88 671.862 L2102.88 418.639  Z" fill="#7ac5cd" fill-rule="evenodd" fill-opacity="1"/>
<polyline clip-path="url(#clip553)" style="stroke:#000000; stroke-linecap:round; stroke-linejoin:round; stroke-width:4; stroke-opacity:1; fill:none" points="2102.88,418.639 2067.18,418.639 2138.58,418.639 2102.88,418.639 2102.88,671.862 2102.88,418.639 "/>
<polyline clip-path="url(#clip553)" style="stroke:#7ac5cd; stroke-linecap:round; stroke-linejoin:round; stroke-width:0; stroke-opacity:1; fill:none" points="2102.88,1009.49 2067.18,1009.49 2138.58,1009.49 2102.88,1009.49 2102.88,840.678 "/>
<polyline clip-path="url(#clip553)" style="stroke:#7ac5cd; stroke-linecap:round; stroke-linejoin:round; stroke-width:0; stroke-opacity:1; fill:none" points="2174.27,840.678 2174.27,756.27 2031.49,756.27 2031.49,840.678 2174.27,840.678 2174.27,756.27 "/>
<polyline clip-path="url(#clip553)" style="stroke:#7ac5cd; stroke-linecap:round; stroke-linejoin:round; stroke-width:0; stroke-opacity:1; fill:none" points="2174.27,671.862 2031.49,671.862 2031.49,756.27 2174.27,756.27 2174.27,671.862 2102.88,671.862 "/>
<polyline clip-path="url(#clip553)" style="stroke:#7ac5cd; stroke-linecap:round; stroke-linejoin:round; stroke-width:0; stroke-opacity:1; fill:none" points="2102.88,418.639 2067.18,418.639 2138.58,418.639 2102.88,418.639 2102.88,671.862 "/>
<path clip-path="url(#clip553)" d="M2281.36 1465.3 L2245.67 1465.3 L2317.06 1465.3 L2281.36 1465.3 L2281.36 1465.3 L2281.36 1465.3  Z" fill="#7ac5cd" fill-rule="evenodd" fill-opacity="1"/>
<polyline clip-path="url(#clip553)" style="stroke:#000000; stroke-linecap:round; stroke-linejoin:round; stroke-width:4; stroke-opacity:1; fill:none" points="2281.36,1465.3 2245.67,1465.3 2317.06,1465.3 2281.36,1465.3 "/>
<path clip-path="url(#clip553)" d="M2352.76 1465.3 L2352.76 1465.3 L2209.97 1465.3 L2209.97 1465.3 L2352.76 1465.3 L2352.76 1465.3 L2352.76 1465.3  Z" fill="#7ac5cd" fill-rule="evenodd" fill-opacity="1"/>
<polyline clip-path="url(#clip553)" style="stroke:#000000; stroke-linecap:round; stroke-linejoin:round; stroke-width:4; stroke-opacity:1; fill:none" points="2352.76,1465.3 2352.76,1465.3 2209.97,1465.3 2352.76,1465.3 "/>
<path clip-path="url(#clip553)" d="M2352.76 1465.3 L2209.97 1465.3 L2209.97 1465.3 L2352.76 1465.3 L2352.76 1465.3 L2281.36 1465.3 L2352.76 1465.3  Z" fill="#7ac5cd" fill-rule="evenodd" fill-opacity="1"/>
<polyline clip-path="url(#clip553)" style="stroke:#000000; stroke-linecap:round; stroke-linejoin:round; stroke-width:4; stroke-opacity:1; fill:none" points="2352.76,1465.3 2209.97,1465.3 2352.76,1465.3 2281.36,1465.3 2352.76,1465.3 "/>
<path clip-path="url(#clip553)" d="M2281.36 1465.3 L2245.67 1465.3 L2317.06 1465.3 L2281.36 1465.3 L2281.36 1465.3 L2281.36 1465.3  Z" fill="#7ac5cd" fill-rule="evenodd" fill-opacity="1"/>
<polyline clip-path="url(#clip553)" style="stroke:#000000; stroke-linecap:round; stroke-linejoin:round; stroke-width:4; stroke-opacity:1; fill:none" points="2281.36,1465.3 2245.67,1465.3 2317.06,1465.3 2281.36,1465.3 "/>
<polyline clip-path="url(#clip553)" style="stroke:#7ac5cd; stroke-linecap:round; stroke-linejoin:round; stroke-width:0; stroke-opacity:1; fill:none" points="2281.36,1465.3 2245.67,1465.3 2317.06,1465.3 2281.36,1465.3 "/>
<polyline clip-path="url(#clip553)" style="stroke:#7ac5cd; stroke-linecap:round; stroke-linejoin:round; stroke-width:0; stroke-opacity:1; fill:none" points="2352.76,1465.3 2352.76,1465.3 2209.97,1465.3 2352.76,1465.3 "/>
<polyline clip-path="url(#clip553)" style="stroke:#7ac5cd; stroke-linecap:round; stroke-linejoin:round; stroke-width:0; stroke-opacity:1; fill:none" points="2352.76,1465.3 2209.97,1465.3 2352.76,1465.3 2281.36,1465.3 "/>
<polyline clip-path="url(#clip553)" style="stroke:#7ac5cd; stroke-linecap:round; stroke-linejoin:round; stroke-width:0; stroke-opacity:1; fill:none" points="2281.36,1465.3 2245.67,1465.3 2317.06,1465.3 2281.36,1465.3 "/>
</svg>
